<mxfile host="app.diagrams.net" modified="2023-05-31T09:14:21.894Z" agent="Mozilla/5.0 (X11; Linux x86_64) AppleWebKit/537.36 (KHTML, like Gecko) Chrome/107.0.0.0 Safari/537.36" version="21.3.3" etag="yTfRQNgDyIFVm8dF3R_P" type="github">
  <diagram name="第 1 页" id="jzOm_tvhn68_1vdICMgS">
    <mxGraphModel>
      <root>
        <mxCell id="0" />
        <mxCell id="1" parent="0" />
      </root>
    </mxGraphModel>
  </diagram>
</mxfile>
